<svg width="48" height="48" viewBox="0 0 48 48" fill="none" xmlns="http://www.w3.org/2000/svg">
<path d="M24 0C37.2548 0 48 10.7452 48 24C48 37.2548 37.2548 48 24 48C10.7452 48 0 37.2548 0 24C0 10.7452 10.7452 0 24 0Z" fill="#7F4DA0"/>
<path d="M30.3941 20.9585C30.2774 20.0102 29.9859 19.2656 29.4683 18.606C28.7961 17.7567 27.9372 17.2482 26.6655 16.9465C25.8367 16.7454 25.5019 16.7685 25.2022 17.0423C24.923 17.2988 24.8685 17.813 25.0818 18.1461C25.2319 18.3878 25.405 18.4743 25.8864 18.5688C26.5275 18.6868 26.9706 18.8399 27.3736 19.0703C28.229 19.5643 28.6274 20.3372 28.6701 21.5886C28.69 22.1761 28.7408 22.3567 28.946 22.5651C29.3263 22.946 30.0032 22.872 30.2904 22.4161C30.3957 22.2443 30.4118 22.1695 30.4229 21.7706C30.4303 21.5236 30.4196 21.1559 30.3941 20.9585Z" fill="white"/>
<path d="M33.7446 22.0277C33.5757 19.1223 32.4393 16.7848 30.4055 15.1402C29.2596 14.216 27.8745 13.5806 26.3563 13.2716C25.8001 13.161 24.7762 13.0715 24.6005 13.1227C24.4347 13.1702 24.2003 13.3496 24.0958 13.512C23.9852 13.688 23.9603 14.081 24.0546 14.3083C24.2068 14.6883 24.4898 14.8226 25.2826 14.892C26.5047 14.9989 27.7652 15.4282 28.7176 16.0639C29.8049 16.7876 30.6693 17.7775 31.2284 18.9407C31.7116 19.9402 32.0087 21.3805 32.0005 22.6703C31.9977 23.1367 32.0698 23.4002 32.2573 23.5928C32.5405 23.8889 32.9533 23.9537 33.3176 23.757C33.7213 23.5447 33.8157 23.172 33.7446 22.0277Z" fill="white"/>
<path d="M37.4522 33.2164C37.3954 33.0503 37.2628 32.7941 37.1681 32.647C36.5712 31.7457 33.3645 29.2363 31.7635 28.4156C30.8493 27.946 30.172 27.7895 29.6699 27.9364C29.1299 28.0883 28.8457 28.3397 27.941 29.464C27.5763 29.9147 27.2021 30.3369 27.1026 30.4033C26.8563 30.5741 26.3731 30.7117 26.0321 30.7117C25.2411 30.7069 23.8059 30.1946 22.7022 29.5209C21.8449 28.9991 20.746 28.0646 19.9028 27.1395C18.9081 26.0532 18.2308 25.0949 17.6955 24.0133C17.004 22.6234 16.8287 21.7741 17.1176 21.1526C17.1887 20.9961 17.2835 20.8302 17.326 20.778C17.3687 20.7306 17.814 20.3653 18.3065 19.9668C19.2729 19.1983 19.4292 19.0228 19.6091 18.4962C19.8365 17.8273 19.775 17.1442 19.4244 16.4564C19.1544 15.9345 18.4487 14.796 17.9371 14.0607C17.2598 13.093 15.5735 11.0247 15.2371 10.7447C14.6309 10.2514 13.8541 10.166 12.9967 10.4981C12.0921 10.8491 10.3963 12.2154 9.67155 13.1689C9.01789 14.0323 8.76692 14.6441 8.72899 15.4506C8.69586 16.1147 8.75268 16.3899 9.1032 17.2391C11.8457 23.8994 15.9382 29.2173 21.5607 33.4394C24.4974 35.6452 27.5431 37.3245 30.7025 38.4726C32.545 39.1414 33.3455 39.1747 34.2881 38.6245C34.686 38.3871 35.6712 37.3767 36.2207 36.6414C37.1301 35.4174 37.4665 34.8531 37.5612 34.4024C37.6275 34.094 37.5754 33.558 37.4522 33.2164Z" fill="white"/>
<path d="M37.1554 22.6947C37.0947 21.0513 36.818 19.7033 36.241 18.2003C35.6714 16.722 35.0949 15.7572 34.0061 14.4524C32.9768 13.229 32.1772 12.5304 30.9092 11.7529C29.1401 10.6695 26.9871 9.95256 24.5743 9.65104C23.7515 9.54566 23.5653 9.55319 23.3129 9.72163C22.8237 10.0407 22.8302 10.8365 23.3209 11.1508C23.4834 11.2508 23.6275 11.2873 24.2857 11.3734C25.2961 11.5094 25.9458 11.6376 26.7167 11.848C29.7397 12.6743 32.0644 14.3635 33.6186 16.871C34.9192 18.9609 35.4591 21.0511 35.3825 23.7206C35.3558 24.623 35.3752 24.7818 35.5131 24.9987C35.7773 25.4028 36.474 25.4828 36.8314 25.1474C37.0538 24.943 37.0957 24.7896 37.1395 24.0172C37.1605 23.6142 37.165 23.0194 37.1554 22.6947Z" fill="white"/>
</svg>
