<svg width="30" height="33" viewBox="0 0 30 33" fill="none" xmlns="http://www.w3.org/2000/svg">
<path d="M10.3164 11.4806L7.48465 0.15185C7.05097 0.050487 6.60702 -0.000466005 6.16165 3.21122e-06C2.75963 3.21122e-06 0.00215386 2.95617 0.00215386 6.60373C0.00215386 6.70065 -0.00269232 6.50681 0.00215386 6.60373C0.00215386 6.50681 -0.123847 15.3705 7.50081 23.5444C15.1255 31.7182 23.8405 32.1576 23.8405 32.1576C23.931 32.1625 23.7484 32.1576 23.8405 32.1576C27.2425 32.1576 30 29.2015 30 25.5539C30 24.9982 29.9354 24.4571 29.8158 23.9401L19.4192 20.9549L17.8248 24.1178C17.8248 24.1178 15.2288 24.5588 11.1564 20.1924C7.08565 15.8276 7.50242 13.0524 7.50242 13.0524L10.3164 11.4806Z" fill="white"/>
</svg>
