<svg width="76" height="65" viewBox="0 0 76 65" fill="none" xmlns="http://www.w3.org/2000/svg">
<path d="M75.0414 43.8786C75.0414 43.8665 75.0397 43.8551 75.0391 43.843C75.0397 43.8299 75.0409 43.8178 75.0414 43.8046L75.0936 19.316C75.0953 18.7079 74.6036 18.2144 73.996 18.2127C73.9949 18.2127 73.9943 18.2127 73.9932 18.2127C73.3868 18.2127 72.8944 18.7033 72.8927 19.3103L72.8893 20.8348L72.7122 20.9386C72.6165 20.9942 72.4984 20.9942 72.4044 20.9397L71.6009 20.4692C70.9194 20.0708 70.1101 20.0153 69.3805 20.3173C68.6509 20.6193 68.1173 21.2309 67.9161 21.9955L67.68 22.8947C67.6525 23.0002 67.57 23.0827 67.4645 23.1102L66.5652 23.3458C65.8012 23.5452 65.1897 24.0777 64.8871 24.8073C64.5839 25.5375 64.6395 26.3473 65.0384 27.0288L65.5078 27.8323C65.5622 27.9258 65.5622 28.0421 65.5072 28.1361L65.039 28.9379C64.6395 29.6205 64.5845 30.4304 64.8871 31.1606C65.1897 31.8902 65.8013 32.4226 66.5641 32.6215L67.4639 32.8571C67.57 32.8852 67.6525 32.9677 67.68 33.0726L67.9161 33.973C68.1173 34.7364 68.6509 35.3479 69.3805 35.65C69.6917 35.7789 70.0167 35.8426 70.3405 35.8426C70.7767 35.8426 71.21 35.7268 71.6014 35.4981L72.4038 35.0287C72.4984 34.9731 72.6165 34.9737 72.7099 35.0281L72.8589 35.1152L72.8423 42.7019H63.899C63.903 42.6922 63.9076 42.6824 63.9122 42.6727C64.2641 41.8239 64.1999 40.8816 63.7362 40.0878L63.1287 39.0516C62.9992 38.8303 62.9992 38.5564 63.1287 38.3352L63.7362 37.2989C64.1999 36.5051 64.2641 35.5629 63.9122 34.714C63.5597 33.8652 62.8479 33.2451 61.9583 33.0124L60.7977 32.7086C60.549 32.6439 60.3541 32.4496 60.2893 32.2008L59.9844 31.0408C59.7523 30.1518 59.1327 29.4406 58.2839 29.0887C57.434 28.7362 56.4911 28.8004 55.6979 29.2646L54.6582 29.8721C54.4376 30.0011 54.1636 30.0011 53.9412 29.871L52.905 29.2658C52.2762 28.8972 51.5415 28.7809 50.8394 28.9282V25.0062C50.8394 22.7549 49.0076 20.9231 46.7558 20.9231H41.0455C40.4374 20.9231 39.9451 21.416 39.9451 22.0235C39.9451 22.6316 40.4374 23.124 41.0455 23.124H46.7558C47.7937 23.124 48.6385 23.9682 48.6385 25.0062V42.7839H6.21801C2.78948 42.7839 0 45.5716 0 48.9985V59.5597C0 60.6424 0.880919 61.5233 1.96416 61.5233H4.86597V62.8089C4.86597 64.0171 5.84891 65 7.05709 65H20.0829C21.2911 65 22.2746 64.0171 22.2746 62.8089V61.5233H52.2241V62.8089C52.2241 64.0171 53.207 65 54.4152 65H67.441C68.6492 65 69.6321 64.0171 69.6321 62.8089V61.5233H73.1587C74.2419 61.5233 75.1228 60.6424 75.1228 59.554L75.0414 43.8786ZM71.2931 33.1287L70.4901 33.5987C70.3835 33.6612 70.2855 33.6428 70.2225 33.6171C70.1703 33.5953 70.078 33.5402 70.0448 33.4136L69.8092 32.5143C69.58 31.6414 68.8956 30.9577 68.0222 30.7284L67.1206 30.4923C67.002 30.4613 66.9458 30.3799 66.92 30.3175C66.8982 30.2659 66.8725 30.1622 66.9384 30.0492L67.4072 29.2468C67.8628 28.4679 67.8628 27.4999 67.4078 26.721L66.9384 25.918C66.8725 25.8051 66.8982 25.702 66.92 25.6504C66.9458 25.5873 67.002 25.5065 67.1218 25.475L68.0222 25.2394C68.8951 25.0102 69.58 24.3264 69.8087 23.4535L70.0448 22.5543C70.078 22.4276 70.1703 22.3726 70.2225 22.3508C70.254 22.3376 70.2941 22.3267 70.34 22.3267C70.3852 22.3267 70.4362 22.3376 70.4895 22.3686L71.2937 22.8391C71.7797 23.1234 72.3408 23.2306 72.8836 23.1589L72.8635 32.8061C72.327 32.7401 71.774 32.8479 71.2931 33.1287ZM51.197 31.1073C51.3128 31.066 51.5443 31.019 51.7937 31.1652L52.8293 31.7704C53.7372 32.3028 54.8646 32.3028 55.7701 31.771L56.8087 31.1646C57.0746 31.0093 57.3188 31.0712 57.4408 31.1216C57.5623 31.172 57.7778 31.3004 57.8552 31.5984L58.1607 32.7585C58.4255 33.7741 59.2222 34.5708 60.2401 34.8378L61.4018 35.1416C61.6993 35.2196 61.8282 35.4351 61.8792 35.5571C61.9297 35.6786 61.991 35.9228 61.8363 36.187L61.2299 37.2227C60.698 38.13 60.698 39.2568 61.2299 40.1641L61.8368 41.1997C61.991 41.4645 61.9297 41.7081 61.8792 41.8296C61.8288 41.9517 61.6993 42.1672 61.4018 42.2451L60.2406 42.5489C60.0893 42.5884 59.9426 42.6394 59.801 42.7019H59.0926C59.2267 42.1311 59.2955 41.5436 59.2955 40.9441C59.2955 36.7074 55.8464 33.2606 51.6074 33.2606C51.3501 33.2606 51.0939 33.2743 50.8394 33.2995V31.3864C50.9236 31.2586 51.048 31.16 51.197 31.1073ZM50.8394 35.5147C51.0927 35.4792 51.3489 35.4614 51.6074 35.4614C54.633 35.4614 57.0947 37.9213 57.0947 40.9441C57.0947 41.5505 56.9984 42.1391 56.8069 42.7019H50.8394V35.5147ZM20.0829 62.7997L7.06684 62.8089V61.5233H8.8281C9.43563 61.5233 9.92853 61.031 9.92853 60.4229C9.92853 59.8154 9.43563 59.323 8.8281 59.323H2.20086V48.9985C2.20086 46.785 4.00282 44.9847 6.21801 44.9847H31.0918V59.323H13.3766C12.769 59.323 12.2761 59.8154 12.2761 60.4229C12.2761 61.031 12.769 61.5233 13.3766 61.5233H20.0777L20.0829 62.7997ZM67.4416 62.7997L54.425 62.8089V61.5233H67.4364L67.4416 62.7997ZM33.2927 59.323V44.9847H72.8463L72.9208 59.323H33.2927Z" fill="#135284"/>
<path d="M23.8845 25.1609C23.8845 24.5345 23.3767 24.0272 22.7503 24.0272C22.1233 24.0272 21.6155 24.5345 21.6155 25.1609C21.6155 25.7868 22.1233 26.2946 22.7503 26.2946C23.3767 26.2946 23.8845 25.7868 23.8845 25.1609Z" fill="#135284"/>
<path d="M36.5034 13.6442C36.5034 13.0178 35.995 12.5105 35.3686 12.5105C34.7421 12.5105 34.2343 13.0178 34.2343 13.6442C34.2343 14.2701 34.7421 14.7779 35.3686 14.7779C35.995 14.7779 36.5034 14.2701 36.5034 13.6442Z" fill="#135284"/>
<path d="M5.71995 14.4925H6.63755V25.7965C6.63755 28.7471 9.03902 31.1474 11.9913 31.1474H12.1827V33.0921C12.1827 34.2246 13.1043 35.1462 14.2368 35.1462H17.78V40.3767C17.78 40.9842 18.2729 41.4771 18.8804 41.4771C19.488 41.4771 19.9809 40.9842 19.9809 40.3767V35.1416C21.0727 35.0952 21.9473 34.1948 21.9473 33.0921V31.1239C24.327 30.9497 26.5158 29.714 27.8862 27.7395L29.381 25.5879C30.4516 24.045 32.2129 23.124 34.0922 23.124H36.5034C37.1109 23.124 37.6033 22.6311 37.6033 22.0235C37.6033 21.416 37.1109 20.9231 36.5034 20.9231H34.0922C31.4918 20.9231 29.0548 22.1978 27.5733 24.3327L26.0785 26.4843C25.0079 28.0261 23.2472 28.9465 21.3673 28.9465H19.8989V5.93144H67.3986C68.8733 5.93144 70.2591 6.5063 71.3005 7.54942C72.3408 8.59197 72.9117 9.9761 72.9088 11.4479L72.9025 14.4804C72.9008 15.0885 73.3925 15.582 74.0006 15.5831H74.0029C74.6093 15.5831 75.1022 15.092 75.1033 14.4856L75.1096 11.4525C75.1142 9.39207 74.3147 7.45371 72.8589 5.99449C71.4014 4.5347 69.4625 3.73001 67.3992 3.73001H62.4375V1.7028C62.4375 1.0947 61.9446 0.602372 61.337 0.602372C60.7295 0.602372 60.2366 1.0947 60.2366 1.7028V3.73058H34.0521C33.0393 1.49877 30.7714 0 28.2754 0C25.7788 0 23.5114 1.49877 22.4998 3.73058H18.8065C18.8036 3.73058 18.8008 3.73001 18.7985 3.73001C18.7956 3.73001 18.7927 3.73058 18.7899 3.73058H11.9913C9.03902 3.73058 6.63755 6.1309 6.63755 9.08143V12.2916H5.71995C5.11185 12.2916 4.61952 12.7845 4.61952 13.392C4.61952 13.9996 5.11185 14.4925 5.71995 14.4925ZM14.3836 31.2712H19.7465V32.9453H14.3836V31.2712ZM28.2754 2.20086C29.5391 2.20086 30.7129 2.78833 31.485 3.73058H25.0669C25.8378 2.78833 27.0122 2.20086 28.2754 2.20086ZM8.83842 9.08143C8.83842 7.34481 10.2529 5.93144 11.9913 5.93144H17.698V28.9471H11.9913C10.2529 28.9471 8.83842 27.5337 8.83842 25.7965V9.08143Z" fill="#135284"/>
<path d="M33.4497 8.15466C31.7326 8.15466 30.3352 9.55198 30.3352 11.2691V16.0187C30.3352 17.7364 31.7326 19.1338 33.4497 19.1338H67.5413C69.259 19.1338 70.6563 17.7364 70.6563 16.0187V11.2691C70.6563 9.55198 69.259 8.15466 67.5413 8.15466H33.4497ZM63.9173 10.3555V12.5438H61.6454V10.3555H63.9173ZM59.4445 16.9329H44.6374V10.3555H59.4445V16.9329ZM32.5361 16.0187V11.2691C32.5361 10.7653 32.9459 10.3555 33.4497 10.3555H42.4366V16.9329H33.4497C32.9459 16.9329 32.5361 16.5225 32.5361 16.0187ZM61.6454 16.9329V14.7446H63.9173V16.9329H61.6454ZM67.5413 16.9329H66.1176V14.7446H68.4549V16.0187C68.4549 16.5225 68.0451 16.9329 67.5413 16.9329ZM68.4549 11.2691V12.5438H66.1176V10.3555H67.5413C68.0451 10.3555 68.4549 10.7653 68.4549 11.2691Z" fill="#135284"/>
<path d="M71.9241 27.9836C71.9241 27.3578 71.4157 26.85 70.7893 26.85C70.1629 26.85 69.6551 27.3578 69.6551 27.9836C69.6551 28.6101 70.1629 29.1173 70.7893 29.1173C71.4157 29.1173 71.9241 28.6101 71.9241 27.9836Z" fill="#135284"/>
<path d="M54.6554 39.8952C54.6554 39.2688 54.1476 38.7616 53.5211 38.7616C52.8941 38.7616 52.3863 39.2688 52.3863 39.8952C52.3863 40.5211 52.8941 41.0289 53.5211 41.0289C54.1476 41.0289 54.6554 40.5211 54.6554 39.8952Z" fill="#135284"/>
</svg>
