<svg width="93" height="80" viewBox="0 0 93 80" fill="none" xmlns="http://www.w3.org/2000/svg">
<path d="M0.0341187 79.9741C0.236202 76.0201 0.236202 72.0662 0.0341187 68.1122H2.98149C5.65815 68.1122 6.99647 69.0959 6.99647 71.0596C6.99647 71.5895 6.81727 72.0776 6.45504 72.5237C6.09282 72.9698 5.68102 73.3054 5.21966 73.5303C5.92124 73.6981 6.50461 74.026 6.9736 74.514C7.44258 74.9983 7.67517 75.6503 7.67517 76.4624C7.67517 78.7997 6.09282 79.9703 2.93192 79.9703H0.0341187V79.9741ZM3.03487 78.9904C3.37422 78.9904 3.6945 78.9523 3.99191 78.8798C4.28931 78.8074 4.58672 78.6815 4.87269 78.5061C5.16247 78.3308 5.38743 78.0677 5.55138 77.7169C5.71534 77.3661 5.79541 76.9505 5.79541 76.4624C5.79541 74.8686 4.846 74.0717 2.94717 74.0717H2.03208C2.03208 75.3719 2.05877 77.0077 2.11596 78.9866H3.03106L3.03487 78.9904ZM2.95099 73.0956C3.58393 73.0956 4.12155 72.9431 4.56766 72.6381C5.01377 72.3331 5.23873 71.8069 5.23873 71.0634C5.23873 70.6478 5.17009 70.297 5.03664 70.0224C4.89938 69.7441 4.71255 69.5458 4.46852 69.42C4.2245 69.2942 3.9881 69.2103 3.75551 69.1645C3.52292 69.1188 3.25602 69.0959 2.95099 69.0959H2.11977L2.05114 73.0956H2.94717H2.95099Z" fill="white"/>
<path d="M8.20135 79.9741C8.41488 76.226 8.41488 72.2721 8.20135 68.1122H10.3023C10.2451 69.6602 10.2108 71.1892 10.1993 72.7029H11.469C11.9647 72.7029 12.4222 72.7372 12.8417 72.8059C13.2611 72.8745 13.6652 72.9965 14.0618 73.1719C14.4583 73.3473 14.7977 73.5685 15.0798 73.8315C15.362 74.0985 15.5869 74.4454 15.7471 74.8725C15.911 75.3033 15.9911 75.7914 15.9911 76.3481C15.9911 78.7654 14.4507 79.9741 11.3661 79.9741H8.19754H8.20135ZM11.5071 78.9904C12.2087 78.9904 12.8111 78.7845 13.3183 78.3727C13.8254 77.9609 14.0808 77.286 14.0808 76.3481C14.0808 75.4101 13.8254 74.7314 13.3183 74.3158C12.8111 73.8964 12.2049 73.6905 11.5071 73.6905H10.2031C10.1917 75.147 10.2146 76.9162 10.2718 78.9942H11.5071V78.9904ZM17.4209 79.9741C17.623 75.9744 17.623 72.0204 17.4209 68.1122H19.5219C19.3731 71.8641 19.3731 75.8143 19.5219 79.9741H17.4209Z" fill="white"/>
<path d="M20.4675 79.9741C20.6695 75.9744 20.6695 72.0204 20.4675 68.1122H22.5684C22.4311 71.6582 22.4273 75.269 22.5531 78.937H26.366C26.5223 75.2881 26.5071 71.6811 26.3164 68.1122H28.4174C28.2915 71.5705 28.2801 75.1775 28.383 78.937H32.1769C32.3484 75.3453 32.337 71.7383 32.1426 68.1122H34.2244C34.0795 71.8641 34.0795 75.8143 34.2244 79.9741H20.4675Z" fill="white"/>
<path d="M35.1738 79.9741C35.3759 75.9744 35.3759 72.0204 35.1738 68.1122H37.2747C37.1374 72.0319 37.0879 74.9754 37.1222 76.9391L42.5251 68.1122H44.218C44.0731 71.8641 44.0731 75.8143 44.218 79.9741H42.1171C42.2963 76.7217 42.3497 73.6943 42.2696 70.8918L36.7447 79.9741H35.17H35.1738Z" fill="white"/>
<path d="M45.1712 79.9741C45.3733 76.0202 45.3733 72.0662 45.1712 68.1122H48.1186C50.7953 68.1122 52.1336 69.0959 52.1336 71.0596C52.1336 71.5896 51.9544 72.0776 51.5922 72.5237C51.2299 72.9698 50.8181 73.3054 50.3568 73.5303C51.0583 73.6981 51.6417 74.026 52.1107 74.5141C52.5797 74.9983 52.8123 75.6503 52.8123 76.4624C52.8123 78.7998 51.2299 79.9703 48.069 79.9703H45.1712V79.9741ZM48.172 78.9904C48.5113 78.9904 48.8278 78.9523 49.129 78.8798C49.4264 78.8074 49.72 78.6816 50.0098 78.5062C50.2958 78.3308 50.5245 78.0677 50.6885 77.7169C50.8525 77.3661 50.9325 76.9505 50.9325 76.4624C50.9325 74.8687 49.9831 74.0718 48.0843 74.0718H47.1692C47.1692 75.372 47.1959 77.0077 47.2531 78.9866H48.1682L48.172 78.9904ZM48.0881 73.0957C48.721 73.0957 49.2587 72.9431 49.7048 72.6381C50.1509 72.3331 50.372 71.8069 50.372 71.0634C50.372 70.6478 50.3034 70.297 50.1699 70.0225C50.0327 69.7441 49.8458 69.5459 49.6018 69.42C49.3578 69.2942 49.1214 69.2103 48.8888 69.1646C48.6562 69.1188 48.3893 69.0959 48.0843 69.0959H47.2531L47.1844 73.0957H48.0805H48.0881Z" fill="white"/>
<path d="M53.3385 79.9741C53.552 75.8524 53.552 71.8984 53.3385 68.1122H55.4546C55.3631 69.9081 55.3135 71.7116 55.3021 73.5151C55.9922 72.7906 56.7663 71.8832 57.6318 70.7889C58.4973 69.6946 59.1646 68.8023 59.6412 68.1122H62.0624C61.723 68.3944 60.8499 69.2828 59.4429 70.7736C58.036 72.2644 57.1971 73.1795 56.9264 73.5189C57.6165 73.6333 58.219 73.9002 58.7375 74.3234C59.2561 74.7466 59.6679 75.2194 59.9653 75.7456C60.2627 76.2718 60.5487 76.7942 60.8117 77.3127C61.0786 77.8313 61.3837 78.2812 61.7268 78.6587C62.07 79.0362 62.4704 79.2535 62.9203 79.3107V79.8864C62.2301 80.0237 61.6658 80.0351 61.2274 79.9284C60.7889 79.8216 60.3847 79.6081 60.0225 79.2916C59.6602 78.9752 59.3667 78.6167 59.1417 78.2164C58.9167 77.816 58.6689 77.3852 58.3944 76.9276C58.1236 76.4701 57.8682 76.0468 57.6242 75.6579C57.3801 75.269 57.056 74.922 56.6481 74.6246C56.2401 74.3272 55.7902 74.1366 55.2945 74.0565C55.2945 76.0316 55.344 78.0029 55.447 79.9703H53.3308L53.3385 79.9741Z" fill="white"/>
<path d="M61.1663 79.9741C61.4828 79.2192 61.9747 78.0639 62.6419 76.5082C63.3092 74.9564 63.8888 73.5837 64.3768 72.3903C64.8687 71.2006 65.2995 70.0949 65.6732 69.0769C65.4482 68.5812 65.2957 68.2571 65.2156 68.1122H67.4538C69.1696 73.149 70.6452 77.103 71.8768 79.9741H69.6234C69.2726 78.8455 68.9523 77.8465 68.6587 76.9734H64.068C63.6714 78.1592 63.3893 79.1582 63.2215 79.9741H61.1702H61.1663ZM68.2812 75.9248C67.6826 74.1861 67.0268 72.4246 66.3176 70.6402C65.3338 73.3054 64.6971 75.0669 64.4035 75.9248H68.285H68.2812Z" fill="white"/>
<path d="M83.1058 68.1122C82.9685 71.5896 82.9685 75.5435 83.1058 79.9741H81.0201C81.1116 77.8618 81.1574 75.9973 81.1574 74.3844H76.212C76.2349 76.3061 76.2731 78.1668 76.3302 79.9741H74.195C74.42 75.963 74.42 72.0128 74.195 68.1122H76.3302C76.2731 69.7937 76.2349 71.54 76.212 73.3473H81.1574C81.1574 71.8221 81.1116 70.0758 81.0201 68.1122H83.1058Z" fill="white"/>
<path d="M92.9659 68.1122C92.8287 71.5896 92.8287 75.5435 92.9659 79.9741H90.8803C90.9718 77.8618 91.0175 75.9973 91.0175 74.3844H86.0722C86.0951 76.3061 86.1332 78.1668 86.1904 79.9741H84.0552C84.2801 75.963 84.2801 72.0128 84.0552 68.1122H86.1904C86.1332 69.7937 86.0951 71.54 86.0722 73.3473H91.0175C91.0175 71.8221 90.9718 70.0758 90.8803 68.1122H92.9659Z" fill="white"/>
<path d="M71.0494 33.8228C70.1877 44.354 63.2749 54.1722 53.6549 58.538C44.035 62.9038 32.093 61.6417 23.5978 55.358C15.1027 49.0744 10.4014 38.0246 11.7626 27.5505C13.1658 16.7524 20.3645 7.64339 30.3047 3.6856C45.0683 -2.19389 57.8301 6.48808 58.749 7.13628" stroke="white" stroke-width="2.5" stroke-miterlimit="10" stroke-linecap="round"/>
<path d="M59.1836 0.486596C57.8415 -0.439938 55.9045 0.0519258 54.7111 1.16148C53.9943 1.82874 53.4834 2.66376 53.0601 3.55217L53.0792 3.51023C42.8835 23.12 32.4133 42.8555 22.2176 62.4653C34.335 44.3197 46.4524 26.1741 58.5698 8.0247C59.3514 6.85414 60.1483 5.64926 60.4266 4.27281C60.705 2.89635 60.3428 1.29112 59.1875 0.490409L59.1836 0.486596ZM58.6727 3.18994C58.6384 4.30712 58.1046 5.34423 57.5136 6.29364C56.0952 8.57376 54.2841 10.6022 52.1793 12.2685C52.1984 12.0626 52.248 11.0788 52.2594 10.9263C52.2937 10.5412 52.3204 10.3963 52.3814 10.0112C52.5034 9.26389 52.6788 8.528 52.9038 7.80355C53.3003 6.54148 53.8418 5.26416 54.5815 4.16223C55.0276 3.49879 55.5766 2.90398 56.202 2.40449C56.5146 2.15665 56.854 1.92787 57.2429 1.84018C57.6318 1.75248 58.0741 1.82492 58.3524 2.11089C58.6193 2.38923 58.6803 2.80484 58.6689 3.18994H58.6727Z" fill="white"/>
<path d="M56.69 5.85136C61.1397 8.5547 64.5179 11.014 66.8285 12.8061C69.4632 14.8498 70.8473 16.1309 73.2037 16.2949C75.4533 16.4512 78.4273 15.5514 80.2156 12.9586C81.756 10.7319 81.9695 7.63579 80.6808 5.25273C79.392 2.86967 76.6429 1.3407 73.9472 1.58091C72.3 1.7258 70.691 2.52269 69.6806 3.83433C68.6701 5.14597 68.3193 6.97235 68.8951 8.5242C69.4708 10.0761 71.0151 11.2542 72.6699 11.2771C74.1493 11.2962 75.9985 10.2934 76.2769 8.45938C76.5171 6.88847 75.5143 5.26417 73.8557 4.70367" stroke="white" stroke-width="2.5" stroke-miterlimit="10" stroke-linecap="round"/>
</svg>
